<mxfile host="drawio-plugin" modified="2023-09-03T20:59:04.008Z" agent="5.0 (Macintosh; Intel Mac OS X 10_15_7) AppleWebKit/537.36 (KHTML, like Gecko) Chrome/111.0.0.0 Safari/537.36" etag="fux0j6jPpqa-Z_qvx3q0" version="20.5.3" type="embed"><diagram name="Page-1" id="GlWlvCR5TyYbZ5sayl_W"><mxGraphModel dx="1052" dy="660" grid="1" gridSize="10" guides="1" tooltips="1" connect="1" arrows="1" fold="1" page="1" pageScale="1" pageWidth="827" pageHeight="1169" math="0" shadow="0"><root><mxCell id="0"/><mxCell id="1" parent="0"/><mxCell id="3" value="&lt;font style=&quot;font-size: 20px;&quot;&gt;&lt;br&gt;&lt;br&gt;MongoDB&lt;/font&gt;" style="shape=cylinder3;whiteSpace=wrap;html=1;boundedLbl=1;backgroundOutline=1;size=15;" vertex="1" parent="1"><mxGeometry x="280" y="400" width="100" height="130" as="geometry"/></mxCell><mxCell id="4" value="" style="group" vertex="1" connectable="0" parent="1"><mxGeometry x="40" y="80" width="200" height="257.6" as="geometry"/></mxCell><mxCell id="eIFktIWCK0CNhbUc9ySq-3" value="" style="group" parent="4" vertex="1" connectable="0"><mxGeometry y="57.599999999999994" width="200" height="200" as="geometry"/></mxCell><mxCell id="eIFktIWCK0CNhbUc9ySq-1" value="&lt;font style=&quot;font-size: 24px;&quot;&gt;Data Processor&lt;br&gt;&lt;br&gt;&lt;br&gt;&lt;/font&gt;" style="whiteSpace=wrap;html=1;aspect=fixed;align=center;" parent="eIFktIWCK0CNhbUc9ySq-3" vertex="1"><mxGeometry width="200" height="200" as="geometry"/></mxCell><mxCell id="eIFktIWCK0CNhbUc9ySq-2" value="&lt;ul&gt;&lt;li style=&quot;text-align: left;&quot;&gt;Collect data from provider/source&lt;br&gt;&lt;/li&gt;&lt;li style=&quot;text-align: left;&quot;&gt;Calculate returns&lt;/li&gt;&lt;li style=&quot;text-align: left;&quot;&gt;Store data&lt;/li&gt;&lt;/ul&gt;" style="rounded=0;whiteSpace=wrap;html=1;" parent="eIFktIWCK0CNhbUc9ySq-3" vertex="1"><mxGeometry x="50" y="122.40000000000002" width="140" height="68.4" as="geometry"/></mxCell><mxCell id="8" value="" style="aspect=fixed;html=1;points=[];align=center;image;fontSize=12;image=img/lib/azure2/compute/App_Services.svg;" vertex="1" parent="eIFktIWCK0CNhbUc9ySq-3"><mxGeometry y="2.4" width="37.6" height="37.6" as="geometry"/></mxCell><mxCell id="2" value="Daily update on weekdays at 7PM NY Time" style="shape=process;whiteSpace=wrap;html=1;backgroundOutline=1;" vertex="1" parent="4"><mxGeometry width="200" height="57.6" as="geometry"/></mxCell><mxCell id="9" value="" style="sketch=0;points=[[0,0,0],[0.25,0,0],[0.5,0,0],[0.75,0,0],[1,0,0],[0,1,0],[0.25,1,0],[0.5,1,0],[0.75,1,0],[1,1,0],[0,0.25,0],[0,0.5,0],[0,0.75,0],[1,0.25,0],[1,0.5,0],[1,0.75,0]];outlineConnect=0;fontColor=#232F3E;gradientColor=#FF4F8B;gradientDirection=north;fillColor=#BC1356;strokeColor=#ffffff;dashed=0;verticalLabelPosition=bottom;verticalAlign=top;align=center;html=1;fontSize=12;fontStyle=0;aspect=fixed;shape=mxgraph.aws4.resourceIcon;resIcon=mxgraph.aws4.managed_workflows_for_apache_airflow;" vertex="1" parent="4"><mxGeometry width="20" height="20" as="geometry"/></mxCell><mxCell id="10" value="" style="dashed=0;outlineConnect=0;html=1;align=center;labelPosition=center;verticalLabelPosition=bottom;verticalAlign=top;shape=mxgraph.weblogos.mongodb;fontSize=20;" vertex="1" parent="1"><mxGeometry x="319.7" y="430" width="20.6" height="60" as="geometry"/></mxCell><mxCell id="18" value="" style="group" vertex="1" connectable="0" parent="1"><mxGeometry x="380" y="147.6" width="190" height="190" as="geometry"/></mxCell><mxCell id="15" value="API Service" style="whiteSpace=wrap;html=1;aspect=fixed;fontSize=12;" vertex="1" parent="18"><mxGeometry width="190" height="190" as="geometry"/></mxCell><mxCell id="16" value="" style="sketch=0;html=1;dashed=0;whitespace=wrap;fillColor=#2875E2;strokeColor=#ffffff;points=[[0.005,0.63,0],[0.1,0.2,0],[0.9,0.2,0],[0.5,0,0],[0.995,0.63,0],[0.72,0.99,0],[0.5,1,0],[0.28,0.99,0]];verticalLabelPosition=bottom;align=center;verticalAlign=top;shape=mxgraph.kubernetes.icon;prIcon=api;fontSize=12;" vertex="1" parent="18"><mxGeometry x="32" width="126" height="80" as="geometry"/></mxCell><mxCell id="17" value="Auth" style="ellipse;whiteSpace=wrap;html=1;aspect=fixed;fontSize=12;" vertex="1" parent="18"><mxGeometry x="110" y="120" width="70" height="70" as="geometry"/></mxCell><mxCell id="19" style="edgeStyle=orthogonalEdgeStyle;rounded=0;orthogonalLoop=1;jettySize=auto;html=1;entryX=1;entryY=0.5;entryDx=0;entryDy=0;entryPerimeter=0;fontSize=12;" edge="1" parent="1" source="15" target="3"><mxGeometry relative="1" as="geometry"/></mxCell><mxCell id="20" style="edgeStyle=orthogonalEdgeStyle;rounded=0;orthogonalLoop=1;jettySize=auto;html=1;fontSize=12;" edge="1" parent="1" source="eIFktIWCK0CNhbUc9ySq-1" target="3"><mxGeometry relative="1" as="geometry"/></mxCell><mxCell id="32" style="edgeStyle=orthogonalEdgeStyle;rounded=0;orthogonalLoop=1;jettySize=auto;html=1;exitX=0;exitY=0.25;exitDx=0;exitDy=0;entryX=1;entryY=0.25;entryDx=0;entryDy=0;fontSize=20;" edge="1" parent="1" source="24" target="15"><mxGeometry relative="1" as="geometry"/></mxCell><mxCell id="31" style="edgeStyle=orthogonalEdgeStyle;rounded=0;orthogonalLoop=1;jettySize=auto;html=1;exitX=1;exitY=0.75;exitDx=0;exitDy=0;entryX=0;entryY=0.75;entryDx=0;entryDy=0;fontSize=20;" edge="1" parent="1" source="15" target="24"><mxGeometry relative="1" as="geometry"/></mxCell><mxCell id="33" value="" style="group" vertex="1" connectable="0" parent="1"><mxGeometry x="690" y="148.8" width="240" height="187.59999999999997" as="geometry"/></mxCell><mxCell id="24" value="&lt;font style=&quot;font-size: 20px;&quot;&gt;Dashboard App&lt;/font&gt;" style="rounded=0;whiteSpace=wrap;html=1;fontSize=12;" vertex="1" parent="33"><mxGeometry width="240" height="187.6" as="geometry"/></mxCell><mxCell id="25" value="" style="aspect=fixed;html=1;points=[];align=center;image;fontSize=12;image=img/lib/azure2/other/Dashboard_Hub.svg;" vertex="1" parent="33"><mxGeometry x="10" y="11.199999999999989" width="68" height="52" as="geometry"/></mxCell><mxCell id="26" value="" style="sketch=0;pointerEvents=1;shadow=0;dashed=0;html=1;strokeColor=none;labelPosition=center;verticalLabelPosition=bottom;verticalAlign=top;align=center;fillColor=#505050;shape=mxgraph.mscae.oms.dashboard;fontSize=12;" vertex="1" parent="33"><mxGeometry x="72.5" y="111.19999999999999" width="95" height="69" as="geometry"/></mxCell><mxCell id="41" value="&lt;font style=&quot;font-size: 12px;&quot;&gt;Auto-refresh at 8PM NY Time&lt;/font&gt;" style="shape=process;whiteSpace=wrap;html=1;backgroundOutline=1;fontSize=20;" vertex="1" parent="1"><mxGeometry x="690" y="89" width="120" height="60" as="geometry"/></mxCell></root></mxGraphModel></diagram></mxfile>